<?xml version="1.0" encoding="UTF-8" standalone="no"?>
<!DOCTYPE svg PUBLIC "-//W3C//DTD SVG 1.1//EN"
 "http://www.w3.org/Graphics/SVG/1.1/DTD/svg11.dtd">
<!-- Generated by graphviz version 2.43.0 (0)
 -->
<!-- Title: %3 Pages: 1 -->
<svg width="2669pt" height="182pt"
 viewBox="0.00 0.00 2668.74 181.54" xmlns="http://www.w3.org/2000/svg" xmlns:xlink="http://www.w3.org/1999/xlink">
<g id="graph0" class="graph" transform="scale(1 1) rotate(0) translate(4 177.54)">
<title>%3</title>
<polygon fill="white" stroke="transparent" points="-4,4 -4,-177.54 2664.74,-177.54 2664.74,4 -4,4"/>
<!-- 1 -->
<g id="node1" class="node">
<title>1</title>
<ellipse fill="none" stroke="black" cx="89.1" cy="-82.77" rx="89.19" ry="21.84"/>
<polygon fill="none" stroke="black" points="35.1,-71.77 35.1,-92.77 80.1,-92.77 80.1,-71.77 35.1,-71.77"/>
<text text-anchor="start" x="38.1" y="-79.57" font-family="Times,serif" font-weight="bold" font-size="14.00">start</text>
<polygon fill="none" stroke="black" points="80.1,-71.77 80.1,-92.77 143.1,-92.77 143.1,-71.77 80.1,-71.77"/>
<text text-anchor="start" x="83.1" y="-78.57" font-family="Times,serif" font-size="14.00">exact: 0</text>
<polygon fill="none" stroke="black" points="34.1,-71.27 34.1,-94.27 144.1,-94.27 144.1,-71.27 34.1,-71.27"/>
</g>
<!-- 3 -->
<g id="node3" class="node">
<title>3</title>
<ellipse fill="none" stroke="black" cx="346.63" cy="-82.77" rx="83.38" ry="36.54"/>
<polygon fill="none" stroke="black" points="296.63,-82.77 296.63,-103.77 333.63,-103.77 333.63,-82.77 296.63,-82.77"/>
<text text-anchor="start" x="299.63" y="-90.57" font-family="Times,serif" font-weight="bold" font-size="14.00">The</text>
<polygon fill="none" stroke="black" points="333.63,-82.77 333.63,-103.77 396.63,-103.77 396.63,-82.77 333.63,-82.77"/>
<text text-anchor="start" x="336.63" y="-89.57" font-family="Times,serif" font-size="14.00">exact: 1</text>
<polygon fill="none" stroke="black" points="296.63,-61.77 296.63,-82.77 333.63,-82.77 333.63,-61.77 296.63,-61.77"/>
<text text-anchor="start" x="299.63" y="-68.57" font-family="Bukyvede" font-size="14.00">The </text>
<polygon fill="none" stroke="black" points="333.63,-61.77 333.63,-82.77 396.63,-82.77 396.63,-61.77 333.63,-61.77"/>
<text text-anchor="start" x="336.63" y="-68.57" font-family="Times,serif" font-size="14.00">A, B, C</text>
<polygon fill="none" stroke="black" points="295.63,-60.77 295.63,-104.77 397.63,-104.77 397.63,-60.77 295.63,-60.77"/>
</g>
<!-- 1&#45;&gt;3 -->
<g id="edge1" class="edge">
<title>1&#45;&gt;3</title>
<path fill="none" stroke="black" d="M178.39,-82.77C202.38,-82.77 228.42,-82.77 252.65,-82.77"/>
<polygon fill="black" stroke="black" points="252.91,-86.27 262.91,-82.77 252.91,-79.27 252.91,-86.27"/>
<text text-anchor="middle" x="220.69" y="-86.57" font-family="Times,serif" font-size="14.00">A, B, C</text>
</g>
<!-- 2 -->
<g id="node2" class="node">
<title>2</title>
<ellipse fill="none" stroke="black" cx="2571.65" cy="-82.77" rx="89.19" ry="21.84"/>
<polygon fill="none" stroke="black" points="2517.65,-71.77 2517.65,-92.77 2553.65,-92.77 2553.65,-71.77 2517.65,-71.77"/>
<text text-anchor="start" x="2520.65" y="-79.57" font-family="Times,serif" font-weight="bold" font-size="14.00">end</text>
<polygon fill="none" stroke="black" points="2553.65,-71.77 2553.65,-92.77 2625.65,-92.77 2625.65,-71.77 2553.65,-71.77"/>
<text text-anchor="start" x="2556.65" y="-78.57" font-family="Times,serif" font-size="14.00">exact: 10</text>
<polygon fill="none" stroke="black" points="2516.65,-71.27 2516.65,-94.27 2626.65,-94.27 2626.65,-71.27 2516.65,-71.27"/>
</g>
<!-- 4 -->
<g id="node4" class="node">
<title>4</title>
<ellipse fill="none" stroke="black" cx="607.7" cy="-82.77" rx="92.76" ry="36.54"/>
<polygon fill="none" stroke="black" points="551.7,-82.77 551.7,-103.77 601.7,-103.77 601.7,-82.77 551.7,-82.77"/>
<text text-anchor="start" x="554.7" y="-90.57" font-family="Times,serif" font-weight="bold" font-size="14.00">quick</text>
<polygon fill="none" stroke="black" points="601.7,-82.77 601.7,-103.77 664.7,-103.77 664.7,-82.77 601.7,-82.77"/>
<text text-anchor="start" x="604.7" y="-89.57" font-family="Times,serif" font-size="14.00">exact: 2</text>
<polygon fill="none" stroke="black" points="551.7,-61.77 551.7,-82.77 601.7,-82.77 601.7,-61.77 551.7,-61.77"/>
<text text-anchor="start" x="554.7" y="-68.57" font-family="Bukyvede" font-size="14.00">quick </text>
<polygon fill="none" stroke="black" points="601.7,-61.77 601.7,-82.77 664.7,-82.77 664.7,-61.77 601.7,-61.77"/>
<text text-anchor="start" x="604.7" y="-68.57" font-family="Times,serif" font-size="14.00">A, B, C</text>
<polygon fill="none" stroke="black" points="550.2,-60.77 550.2,-104.77 665.2,-104.77 665.2,-60.77 550.2,-60.77"/>
</g>
<!-- 3&#45;&gt;4 -->
<g id="edge2" class="edge">
<title>3&#45;&gt;4</title>
<path fill="none" stroke="black" d="M430.31,-82.77C454,-82.77 480.1,-82.77 504.8,-82.77"/>
<polygon fill="black" stroke="black" points="504.92,-86.27 514.92,-82.77 504.92,-79.27 504.92,-86.27"/>
<text text-anchor="middle" x="472.57" y="-86.57" font-family="Times,serif" font-size="14.00">A, B, C</text>
</g>
<!-- 5 -->
<g id="node5" class="node">
<title>5</title>
<ellipse fill="none" stroke="black" cx="862.5" cy="-128.77" rx="96.33" ry="36.54"/>
<polygon fill="none" stroke="black" points="803.5,-128.77 803.5,-149.77 858.5,-149.77 858.5,-128.77 803.5,-128.77"/>
<text text-anchor="start" x="806.5" y="-136.57" font-family="Times,serif" font-weight="bold" font-size="14.00">brown</text>
<polygon fill="none" stroke="black" points="858.5,-128.77 858.5,-149.77 921.5,-149.77 921.5,-128.77 858.5,-128.77"/>
<text text-anchor="start" x="861.5" y="-135.57" font-family="Times,serif" font-size="14.00">exact: 3</text>
<polygon fill="none" stroke="black" points="803.5,-107.77 803.5,-128.77 858.5,-128.77 858.5,-107.77 803.5,-107.77"/>
<text text-anchor="start" x="806.5" y="-114.57" font-family="Bukyvede" font-size="14.00">brown </text>
<polygon fill="none" stroke="black" points="858.5,-107.77 858.5,-128.77 921.5,-128.77 921.5,-107.77 858.5,-107.77"/>
<text text-anchor="start" x="861.5" y="-114.57" font-family="Times,serif" font-size="14.00">A, C</text>
<polygon fill="none" stroke="black" points="802.5,-106.77 802.5,-150.77 922.5,-150.77 922.5,-106.77 802.5,-106.77"/>
</g>
<!-- 4&#45;&gt;5 -->
<g id="edge3" class="edge">
<title>4&#45;&gt;5</title>
<path fill="none" stroke="black" d="M692.18,-97.96C715.56,-102.21 741.17,-106.87 765.23,-111.25"/>
<polygon fill="black" stroke="black" points="764.61,-114.7 775.08,-113.04 765.86,-107.81 764.61,-114.7"/>
<text text-anchor="middle" x="733.33" y="-110.57" font-family="Times,serif" font-size="14.00">A, C</text>
</g>
<!-- 12 -->
<g id="node12" class="node">
<title>12</title>
<ellipse fill="none" stroke="black" cx="862.5" cy="-36.77" rx="81.13" ry="36.54"/>
<polygon fill="none" stroke="black" points="814.5,-36.77 814.5,-57.77 848.5,-57.77 848.5,-36.77 814.5,-36.77"/>
<text text-anchor="start" x="817.5" y="-44.57" font-family="Times,serif" font-weight="bold" font-size="14.00">red</text>
<polygon fill="none" stroke="black" points="848.5,-36.77 848.5,-57.77 911.5,-57.77 911.5,-36.77 848.5,-36.77"/>
<text text-anchor="start" x="851.5" y="-43.57" font-family="Times,serif" font-size="14.00">exact: 3</text>
<polygon fill="none" stroke="black" points="814.5,-15.77 814.5,-36.77 848.5,-36.77 848.5,-15.77 814.5,-15.77"/>
<text text-anchor="start" x="817.5" y="-22.57" font-family="Bukyvede" font-size="14.00">red </text>
<polygon fill="none" stroke="black" points="848.5,-15.77 848.5,-36.77 911.5,-36.77 911.5,-15.77 848.5,-15.77"/>
<text text-anchor="start" x="851.5" y="-22.57" font-family="Times,serif" font-size="14.00">B</text>
<polygon fill="none" stroke="black" points="813,-14.77 813,-58.77 912,-58.77 912,-14.77 813,-14.77"/>
</g>
<!-- 4&#45;&gt;12 -->
<g id="edge4" class="edge">
<title>4&#45;&gt;12</title>
<path fill="none" stroke="black" d="M692.18,-67.58C719.33,-62.64 749.48,-57.15 776.73,-52.19"/>
<polygon fill="black" stroke="black" points="777.42,-55.63 786.63,-50.39 776.16,-48.74 777.42,-55.63"/>
<text text-anchor="middle" x="733.33" y="-66.57" font-family="Times,serif" font-size="14.00">B</text>
</g>
<!-- 6 -->
<g id="node6" class="node">
<title>6</title>
<ellipse fill="none" stroke="black" cx="1105.27" cy="-82.77" rx="80.72" ry="36.54"/>
<polygon fill="none" stroke="black" points="1057.27,-82.77 1057.27,-103.77 1090.27,-103.77 1090.27,-82.77 1057.27,-82.77"/>
<text text-anchor="start" x="1060.27" y="-90.57" font-family="Times,serif" font-weight="bold" font-size="14.00">fox</text>
<polygon fill="none" stroke="black" points="1090.27,-82.77 1090.27,-103.77 1153.27,-103.77 1153.27,-82.77 1090.27,-82.77"/>
<text text-anchor="start" x="1093.27" y="-89.57" font-family="Times,serif" font-size="14.00">exact: 4</text>
<polygon fill="none" stroke="black" points="1057.27,-61.77 1057.27,-82.77 1090.27,-82.77 1090.27,-61.77 1057.27,-61.77"/>
<text text-anchor="start" x="1060.27" y="-68.57" font-family="Bukyvede" font-size="14.00">fox </text>
<polygon fill="none" stroke="black" points="1090.27,-61.77 1090.27,-82.77 1153.27,-82.77 1153.27,-61.77 1090.27,-61.77"/>
<text text-anchor="start" x="1093.27" y="-68.57" font-family="Times,serif" font-size="14.00">A, B, C</text>
<polygon fill="none" stroke="black" points="1056.27,-60.77 1056.27,-104.77 1154.27,-104.77 1154.27,-60.77 1056.27,-60.77"/>
</g>
<!-- 5&#45;&gt;6 -->
<g id="edge5" class="edge">
<title>5&#45;&gt;6</title>
<path fill="none" stroke="black" d="M948.72,-112.49C972.16,-108.01 997.55,-103.16 1020.88,-98.7"/>
<polygon fill="black" stroke="black" points="1021.58,-102.13 1030.74,-96.82 1020.26,-95.26 1021.58,-102.13"/>
<text text-anchor="middle" x="991.66" y="-110.57" font-family="Times,serif" font-size="14.00">A, C</text>
</g>
<!-- 7 -->
<g id="node7" class="node">
<title>7</title>
<ellipse fill="none" stroke="black" cx="1348.05" cy="-128.77" rx="96.33" ry="36.54"/>
<polygon fill="none" stroke="black" points="1289.05,-128.77 1289.05,-149.77 1344.05,-149.77 1344.05,-128.77 1289.05,-128.77"/>
<text text-anchor="start" x="1292.05" y="-136.57" font-family="Times,serif" font-weight="bold" font-size="14.00">jumps</text>
<polygon fill="none" stroke="black" points="1344.05,-128.77 1344.05,-149.77 1407.05,-149.77 1407.05,-128.77 1344.05,-128.77"/>
<text text-anchor="start" x="1347.05" y="-135.57" font-family="Times,serif" font-size="14.00">exact: 5</text>
<polygon fill="none" stroke="black" points="1289.05,-107.77 1289.05,-128.77 1344.05,-128.77 1344.05,-107.77 1289.05,-107.77"/>
<text text-anchor="start" x="1292.05" y="-114.57" font-family="Bukyvede" font-size="14.00">jumps </text>
<polygon fill="none" stroke="black" points="1344.05,-107.77 1344.05,-128.77 1407.05,-128.77 1407.05,-107.77 1344.05,-107.77"/>
<text text-anchor="start" x="1347.05" y="-114.57" font-family="Times,serif" font-size="14.00">A, B</text>
<polygon fill="none" stroke="black" points="1288.05,-106.77 1288.05,-150.77 1408.05,-150.77 1408.05,-106.77 1288.05,-106.77"/>
</g>
<!-- 6&#45;&gt;7 -->
<g id="edge6" class="edge">
<title>6&#45;&gt;7</title>
<path fill="none" stroke="black" d="M1179.82,-96.82C1202.45,-101.14 1227.7,-105.97 1251.57,-110.53"/>
<polygon fill="black" stroke="black" points="1251.23,-114.03 1261.71,-112.47 1252.55,-107.15 1251.23,-114.03"/>
<text text-anchor="middle" x="1218.88" y="-110.57" font-family="Times,serif" font-size="14.00">A, B</text>
</g>
<!-- 13 -->
<g id="node13" class="node">
<title>13</title>
<ellipse fill="none" stroke="black" cx="1348.05" cy="-36.77" rx="91.43" ry="36.54"/>
<polygon fill="none" stroke="black" points="1293.05,-36.77 1293.05,-57.77 1341.05,-57.77 1341.05,-36.77 1293.05,-36.77"/>
<text text-anchor="start" x="1296.05" y="-44.57" font-family="Times,serif" font-weight="bold" font-size="14.00">leaps</text>
<polygon fill="none" stroke="black" points="1341.05,-36.77 1341.05,-57.77 1404.05,-57.77 1404.05,-36.77 1341.05,-36.77"/>
<text text-anchor="start" x="1344.05" y="-43.57" font-family="Times,serif" font-size="14.00">exact: 5</text>
<polygon fill="none" stroke="black" points="1293.05,-15.77 1293.05,-36.77 1341.05,-36.77 1341.05,-15.77 1293.05,-15.77"/>
<text text-anchor="start" x="1296.05" y="-22.57" font-family="Bukyvede" font-size="14.00">leaps </text>
<polygon fill="none" stroke="black" points="1341.05,-15.77 1341.05,-36.77 1404.05,-36.77 1404.05,-15.77 1341.05,-15.77"/>
<text text-anchor="start" x="1344.05" y="-22.57" font-family="Times,serif" font-size="14.00">C</text>
<polygon fill="none" stroke="black" points="1291.55,-14.77 1291.55,-58.77 1404.55,-58.77 1404.55,-14.77 1291.55,-14.77"/>
</g>
<!-- 6&#45;&gt;13 -->
<g id="edge7" class="edge">
<title>6&#45;&gt;13</title>
<path fill="none" stroke="black" d="M1179.82,-68.72C1203.63,-64.17 1230.33,-59.07 1255.29,-54.3"/>
<polygon fill="black" stroke="black" points="1255.96,-57.73 1265.13,-52.42 1254.65,-50.86 1255.96,-57.73"/>
<text text-anchor="middle" x="1218.88" y="-68.57" font-family="Times,serif" font-size="14.00">C</text>
</g>
<!-- 8 -->
<g id="node8" class="node">
<title>8</title>
<ellipse fill="none" stroke="black" cx="1597.19" cy="-82.77" rx="86.95" ry="36.54"/>
<polygon fill="none" stroke="black" points="1545.19,-82.77 1545.19,-103.77 1587.19,-103.77 1587.19,-82.77 1545.19,-82.77"/>
<text text-anchor="start" x="1548.19" y="-90.57" font-family="Times,serif" font-weight="bold" font-size="14.00">over</text>
<polygon fill="none" stroke="black" points="1587.19,-82.77 1587.19,-103.77 1650.19,-103.77 1650.19,-82.77 1587.19,-82.77"/>
<text text-anchor="start" x="1590.19" y="-89.57" font-family="Times,serif" font-size="14.00">exact: 6</text>
<polygon fill="none" stroke="black" points="1545.19,-61.77 1545.19,-82.77 1587.19,-82.77 1587.19,-61.77 1545.19,-61.77"/>
<text text-anchor="start" x="1548.19" y="-68.57" font-family="Bukyvede" font-size="14.00">over </text>
<polygon fill="none" stroke="black" points="1587.19,-61.77 1587.19,-82.77 1650.19,-82.77 1650.19,-61.77 1587.19,-61.77"/>
<text text-anchor="start" x="1590.19" y="-68.57" font-family="Times,serif" font-size="14.00">A, B, C</text>
<polygon fill="none" stroke="black" points="1543.69,-60.77 1543.69,-104.77 1650.69,-104.77 1650.69,-60.77 1543.69,-60.77"/>
</g>
<!-- 7&#45;&gt;8 -->
<g id="edge8" class="edge">
<title>7&#45;&gt;8</title>
<path fill="none" stroke="black" d="M1434.79,-112.81C1458.22,-108.45 1483.64,-103.72 1507.24,-99.33"/>
<polygon fill="black" stroke="black" points="1508.04,-102.74 1517.23,-97.47 1506.76,-95.86 1508.04,-102.74"/>
<text text-anchor="middle" x="1477.22" y="-110.57" font-family="Times,serif" font-size="14.00">A, B</text>
</g>
<!-- 9 -->
<g id="node9" class="node">
<title>9</title>
<ellipse fill="none" stroke="black" cx="1850.48" cy="-82.77" rx="81.13" ry="36.54"/>
<polygon fill="none" stroke="black" points="1802.48,-82.77 1802.48,-103.77 1836.48,-103.77 1836.48,-82.77 1802.48,-82.77"/>
<text text-anchor="start" x="1805.48" y="-90.57" font-family="Times,serif" font-weight="bold" font-size="14.00">the</text>
<polygon fill="none" stroke="black" points="1836.48,-82.77 1836.48,-103.77 1899.48,-103.77 1899.48,-82.77 1836.48,-82.77"/>
<text text-anchor="start" x="1839.48" y="-89.57" font-family="Times,serif" font-size="14.00">exact: 7</text>
<polygon fill="none" stroke="black" points="1802.48,-61.77 1802.48,-82.77 1836.48,-82.77 1836.48,-61.77 1802.48,-61.77"/>
<text text-anchor="start" x="1805.48" y="-68.57" font-family="Bukyvede" font-size="14.00">the </text>
<polygon fill="none" stroke="black" points="1836.48,-61.77 1836.48,-82.77 1899.48,-82.77 1899.48,-61.77 1836.48,-61.77"/>
<text text-anchor="start" x="1839.48" y="-68.57" font-family="Times,serif" font-size="14.00">A, B, C</text>
<polygon fill="none" stroke="black" points="1800.98,-60.77 1800.98,-104.77 1899.98,-104.77 1899.98,-60.77 1800.98,-60.77"/>
</g>
<!-- 8&#45;&gt;9 -->
<g id="edge9" class="edge">
<title>8&#45;&gt;9</title>
<path fill="none" stroke="black" d="M1684.32,-82.77C1708.31,-82.77 1734.45,-82.77 1758.7,-82.77"/>
<polygon fill="black" stroke="black" points="1758.97,-86.27 1768.97,-82.77 1758.97,-79.27 1758.97,-86.27"/>
<text text-anchor="middle" x="1726.66" y="-86.57" font-family="Times,serif" font-size="14.00">A, B, C</text>
</g>
<!-- 10 -->
<g id="node10" class="node">
<title>10</title>
<ellipse fill="none" stroke="black" cx="2082.65" cy="-136.77" rx="84.71" ry="36.54"/>
<polygon fill="none" stroke="black" points="2031.65,-136.77 2031.65,-157.77 2070.65,-157.77 2070.65,-136.77 2031.65,-136.77"/>
<text text-anchor="start" x="2034.65" y="-144.57" font-family="Times,serif" font-weight="bold" font-size="14.00">lazy</text>
<polygon fill="none" stroke="black" points="2070.65,-136.77 2070.65,-157.77 2133.65,-157.77 2133.65,-136.77 2070.65,-136.77"/>
<text text-anchor="start" x="2073.65" y="-143.57" font-family="Times,serif" font-size="14.00">exact: 8</text>
<polygon fill="none" stroke="black" points="2031.65,-115.77 2031.65,-136.77 2070.65,-136.77 2070.65,-115.77 2031.65,-115.77"/>
<text text-anchor="start" x="2034.65" y="-122.57" font-family="Bukyvede" font-size="14.00">lazy </text>
<polygon fill="none" stroke="black" points="2070.65,-115.77 2070.65,-136.77 2133.65,-136.77 2133.65,-115.77 2070.65,-115.77"/>
<text text-anchor="start" x="2073.65" y="-122.57" font-family="Times,serif" font-size="14.00">A, C</text>
<polygon fill="none" stroke="black" points="2030.65,-114.77 2030.65,-158.77 2134.65,-158.77 2134.65,-114.77 2030.65,-114.77"/>
</g>
<!-- 9&#45;&gt;10 -->
<g id="edge10" class="edge">
<title>9&#45;&gt;10</title>
<path fill="none" stroke="black" d="M1923.05,-99.56C1946.71,-105.11 1973.25,-111.34 1997.75,-117.09"/>
<polygon fill="black" stroke="black" points="1997.21,-120.55 2007.75,-119.43 1998.81,-113.74 1997.21,-120.55"/>
<text text-anchor="middle" x="1964.8" y="-114.57" font-family="Times,serif" font-size="14.00">A, C</text>
</g>
<!-- 11 -->
<g id="node11" class="node">
<title>11</title>
<ellipse fill="none" stroke="black" cx="2315.53" cy="-82.77" rx="82.05" ry="36.54"/>
<polygon fill="none" stroke="black" points="2266.53,-82.77 2266.53,-103.77 2301.53,-103.77 2301.53,-82.77 2266.53,-82.77"/>
<text text-anchor="start" x="2269.53" y="-90.57" font-family="Times,serif" font-weight="bold" font-size="14.00">dog</text>
<polygon fill="none" stroke="black" points="2301.53,-82.77 2301.53,-103.77 2364.53,-103.77 2364.53,-82.77 2301.53,-82.77"/>
<text text-anchor="start" x="2304.53" y="-89.57" font-family="Times,serif" font-size="14.00">exact: 9</text>
<polygon fill="none" stroke="black" points="2266.53,-61.77 2266.53,-82.77 2301.53,-82.77 2301.53,-61.77 2266.53,-61.77"/>
<text text-anchor="start" x="2269.53" y="-68.57" font-family="Bukyvede" font-size="14.00">dog</text>
<polygon fill="none" stroke="black" points="2301.53,-61.77 2301.53,-82.77 2364.53,-82.77 2364.53,-61.77 2301.53,-61.77"/>
<text text-anchor="start" x="2304.53" y="-68.57" font-family="Times,serif" font-size="14.00">A, B, C</text>
<polygon fill="none" stroke="black" points="2265.53,-60.77 2265.53,-104.77 2365.53,-104.77 2365.53,-60.77 2265.53,-60.77"/>
</g>
<!-- 9&#45;&gt;11 -->
<g id="edge11" class="edge">
<title>9&#45;&gt;11</title>
<path fill="none" stroke="black" d="M1931.19,-78.26C1952.8,-77.23 1976.19,-76.29 1997.8,-75.77 2073.2,-73.97 2092.1,-73.98 2167.5,-75.77 2185.72,-76.2 2205.19,-76.94 2223.81,-77.77"/>
<polygon fill="black" stroke="black" points="2223.9,-81.28 2234.05,-78.25 2224.22,-74.29 2223.9,-81.28"/>
<text text-anchor="middle" x="2082.65" y="-79.57" font-family="Times,serif" font-size="14.00">B</text>
</g>
<!-- 10&#45;&gt;11 -->
<g id="edge12" class="edge">
<title>10&#45;&gt;11</title>
<path fill="none" stroke="black" d="M2157.66,-119.46C2181.54,-113.88 2208.14,-107.65 2232.56,-101.94"/>
<polygon fill="black" stroke="black" points="2233.58,-105.3 2242.52,-99.61 2231.99,-98.48 2233.58,-105.3"/>
<text text-anchor="middle" x="2200.5" y="-114.57" font-family="Times,serif" font-size="14.00">A, C</text>
</g>
<!-- 11&#45;&gt;2 -->
<g id="edge13" class="edge">
<title>11&#45;&gt;2</title>
<path fill="none" stroke="black" d="M2397.63,-82.77C2421.38,-82.77 2447.6,-82.77 2472.29,-82.77"/>
<polygon fill="black" stroke="black" points="2472.4,-86.27 2482.4,-82.77 2472.4,-79.27 2472.4,-86.27"/>
<text text-anchor="middle" x="2440.05" y="-86.57" font-family="Times,serif" font-size="14.00">A, B, C</text>
</g>
<!-- 12&#45;&gt;6 -->
<g id="edge14" class="edge">
<title>12&#45;&gt;6</title>
<path fill="none" stroke="black" d="M937.7,-50.95C964.04,-55.98 993.85,-61.67 1020.9,-66.84"/>
<polygon fill="black" stroke="black" points="1020.25,-70.28 1030.73,-68.72 1021.56,-63.4 1020.25,-70.28"/>
<text text-anchor="middle" x="991.66" y="-68.57" font-family="Times,serif" font-size="14.00">B</text>
</g>
<!-- 13&#45;&gt;8 -->
<g id="edge15" class="edge">
<title>13&#45;&gt;8</title>
<path fill="none" stroke="black" d="M1431.34,-52.09C1455.66,-56.61 1482.38,-61.59 1507.1,-66.19"/>
<polygon fill="black" stroke="black" points="1506.72,-69.68 1517.19,-68.07 1508,-62.79 1506.72,-69.68"/>
<text text-anchor="middle" x="1477.22" y="-66.57" font-family="Times,serif" font-size="14.00">C</text>
</g>
</g>
</svg>
